HIERARCHY
ROOT Junyuan_V1:Solving:Hips
{
	OFFSET 0.000000 0.000000 0.000000
	CHANNELS 6 Xposition Yposition Zposition Xrotation Yrotation Zrotation
	JOINT Junyuan_V1:Solving:Spine
	{
		OFFSET 0.000000 -11.180205 2.228564
		CHANNELS 6 Xposition Yposition Zposition Xrotation Yrotation Zrotation
		JOINT Junyuan_V1:Solving:Spine1
		{
			OFFSET 0.000000 -8.682996 1.531049
			CHANNELS 6 Xposition Yposition Zposition Xrotation Yrotation Zrotation
			JOINT Junyuan_V1:Solving:Spine2
			{
				OFFSET 0.000000 -8.783394 0.768450
				CHANNELS 6 Xposition Yposition Zposition Xrotation Yrotation Zrotation
				JOINT Junyuan_V1:Solving:Spine3
				{
					OFFSET 0.000000 -8.816944 0.000000
					CHANNELS 6 Xposition Yposition Zposition Xrotation Yrotation Zrotation
					JOINT Junyuan_V1:Solving:Neck
					{
						OFFSET 0.000000 -11.336071 -1.133605
						CHANNELS 6 Xposition Yposition Zposition Xrotation Yrotation Zrotation
						JOINT Junyuan_V1:Solving:Neck1
						{
							OFFSET 0.000000 -7.643246 -0.668695
							CHANNELS 6 Xposition Yposition Zposition Xrotation Yrotation Zrotation
							JOINT Junyuan_V1:Solving:Head
							{
								OFFSET 0.000000 -7.555870 -1.332303
								CHANNELS 6 Xposition Yposition Zposition Xrotation Yrotation Zrotation
								JOINT Junyuan_V1:Solving:HeadEnd
								{
									OFFSET 0.000000 -9.728081 0.000002
									CHANNELS 6 Xposition Yposition Zposition Xrotation Yrotation Zrotation
									End Site
									{
										OFFSET 0.000000 -9.728081 0.000002
									}
								}
							}
						}
					}
					JOINT Junyuan_V1:Solving:RightShoulder
					{
						OFFSET 0.000000 -8.097195 -5.270916
						CHANNELS 6 Xposition Yposition Zposition Xrotation Yrotation Zrotation
						JOINT Junyuan_V1:Solving:RightArm
						{
							OFFSET -20.762394 -0.000008 0.000000
							CHANNELS 6 Xposition Yposition Zposition Xrotation Yrotation Zrotation
							JOINT Junyuan_V1:Solving:RightForeArm
							{
								OFFSET -29.048946 -0.000008 0.000000
								CHANNELS 6 Xposition Yposition Zposition Xrotation Yrotation Zrotation
								JOINT Junyuan_V1:Solving:RightHand
								{
									OFFSET -22.031235 -0.000008 0.000000
									CHANNELS 6 Xposition Yposition Zposition Xrotation Yrotation Zrotation
									JOINT Junyuan_V1:Solving:RightHandThumb1
									{
										OFFSET -3.579254 2.890213 -2.661497
										CHANNELS 6 Xposition Yposition Zposition Xrotation Yrotation Zrotation
										End Site
										{
											OFFSET -5.229485 0.000000 -5.277840
										}
									}
									JOINT Junyuan_V1:Solving:RightHandMiddle1
									{
										OFFSET -9.544678 -0.000004 0.061184
										CHANNELS 6 Xposition Yposition Zposition Xrotation Yrotation Zrotation
										End Site
										{
											OFFSET -7.429878 -0.000004 0.000000
										}
									}
								}
							}
						}
					}
					JOINT Junyuan_V1:Solving:LeftShoulder
					{
						OFFSET 0.000000 -8.097195 -5.270916
						CHANNELS 6 Xposition Yposition Zposition Xrotation Yrotation Zrotation
						JOINT Junyuan_V1:Solving:LeftArm
						{
							OFFSET 20.762394 -0.000008 0.000000
							CHANNELS 6 Xposition Yposition Zposition Xrotation Yrotation Zrotation
							JOINT Junyuan_V1:Solving:LeftForeArm
							{
								OFFSET 29.048946 -0.000008 0.000000
								CHANNELS 6 Xposition Yposition Zposition Xrotation Yrotation Zrotation
								JOINT Junyuan_V1:Solving:LeftHand
								{
									OFFSET 22.031235 -0.000008 0.000000
									CHANNELS 6 Xposition Yposition Zposition Xrotation Yrotation Zrotation
									JOINT Junyuan_V1:Solving:LeftHandThumb1
									{
										OFFSET 3.579254 2.890213 -2.661497
										CHANNELS 6 Xposition Yposition Zposition Xrotation Yrotation Zrotation
										End Site
										{
											OFFSET 5.229485 0.000000 -5.277840
										}
									}
									JOINT Junyuan_V1:Solving:LeftHandMiddle1
									{
										OFFSET 9.544678 -0.000004 0.061184
										CHANNELS 6 Xposition Yposition Zposition Xrotation Yrotation Zrotation
										End Site
										{
											OFFSET 7.429878 -0.000004 0.000000
										}
									}
								}
							}
						}
					}
				}
			}
		}
	}
	JOINT Junyuan_V1:Solving:RightUpLeg
	{
		OFFSET -10.825166 0.000000 0.000000
		CHANNELS 6 Xposition Yposition Zposition Xrotation Yrotation Zrotation
		JOINT Junyuan_V1:Solving:RightLeg
		{
			OFFSET 0.000000 43.678444 -0.000006
			CHANNELS 6 Xposition Yposition Zposition Xrotation Yrotation Zrotation
			JOINT Junyuan_V1:Solving:RightFoot
			{
				OFFSET 0.000000 36.488441 -0.000006
				CHANNELS 6 Xposition Yposition Zposition Xrotation Yrotation Zrotation
				JOINT Junyuan_V1:Solving:RightForeFoot
				{
					OFFSET 0.000000 3.967834 -0.000000
					CHANNELS 6 Xposition Yposition Zposition Xrotation Yrotation Zrotation
					JOINT Junyuan_V1:Solving:RightToeBase
					{
						OFFSET 0.000000 0.000000 -15.539299
						CHANNELS 6 Xposition Yposition Zposition Xrotation Yrotation Zrotation
						JOINT Junyuan_V1:Solving:RightToeBaseEnd
						{
							OFFSET 0.000000 0.000000 -3.486985
							CHANNELS 6 Xposition Yposition Zposition Xrotation Yrotation Zrotation
							End Site
							{
								OFFSET 0.000000 -3.486992 0.000000
							}
						}
					}
				}
			}
		}
	}
	JOINT Junyuan_V1:Solving:LeftUpLeg
	{
		OFFSET 10.825166 0.000000 0.000000
		CHANNELS 6 Xposition Yposition Zposition Xrotation Yrotation Zrotation
		JOINT Junyuan_V1:Solving:LeftLeg
		{
			OFFSET 0.000000 43.678444 -0.000006
			CHANNELS 6 Xposition Yposition Zposition Xrotation Yrotation Zrotation
			JOINT Junyuan_V1:Solving:LeftFoot
			{
				OFFSET 0.000000 36.488441 -0.000006
				CHANNELS 6 Xposition Yposition Zposition Xrotation Yrotation Zrotation
				JOINT Junyuan_V1:Solving:LeftForeFoot
				{
					OFFSET 0.000000 3.967834 -0.000000
					CHANNELS 6 Xposition Yposition Zposition Xrotation Yrotation Zrotation
					JOINT Junyuan_V1:Solving:LeftToeBase
					{
						OFFSET 0.000000 0.000000 -15.539299
						CHANNELS 6 Xposition Yposition Zposition Xrotation Yrotation Zrotation
						JOINT Junyuan_V1:Solving:LeftToeBaseEnd
						{
							OFFSET 0.000000 0.000000 -3.974441
							CHANNELS 6 Xposition Yposition Zposition Xrotation Yrotation Zrotation
							End Site
							{
								OFFSET 0.000000 -3.974442 0.000000
							}
						}
					}
				}
			}
		}
	}
}
MOTION
Frames: 6
Frame Time: 0.041667
-53.814583 -16.484692 -71.238205 46.077351 -176.351441 2.838258 0.000006 -11.180199 2.228560 15.626942 0.590111 -0.311091 0.000002 -8.682985 1.531046 15.834356 -0.004898 -0.180197 -0.000007 -8.783396 0.768445 25.641739 -4.357648 -0.571467 -0.000003 -8.816930 0.000001 -9.379713 -0.268801 -0.710121 0.000009 -11.336077 -1.133623 -38.297912 -8.414098 2.491270 0.000005 -7.643235 -0.668688 11.082461 0.099420 0.905714 0.000008 -7.555871 -1.332305 4.160900 -0.020657 0.249900 0.000002 -9.728081 -0.000005 0.000003 -0.000001 -0.000000 -0.000003 -8.097206 -5.270939 0.000009 6.728982 27.694665 -20.762386 -0.000011 -0.000002 -91.654705 -9.670886 -89.176582 -29.048960 -0.000017 -0.000014 -44.676018 -18.638046 -17.536222 -22.031239 0.000001 -0.000011 6.074247 -10.174964 31.064356 -3.579274 2.890201 -2.661491 0.000005 0.000007 0.000005 -9.544709 -0.000012 0.061178 0.000003 0.000003 -0.000001 0.000003 -8.097202 -5.270939 -0.000000 -13.333680 -18.104591 20.762394 -0.000009 -0.000006 -88.764531 31.790617 78.327271 29.048954 -0.000005 0.000000 -63.499914 4.549120 9.038754 22.031218 -0.000009 0.000010 14.097522 13.725362 -46.626560 3.579256 2.890205 -2.661502 0.000003 0.000005 -0.000008 9.544678 -0.000013 0.061179 -0.000000 0.000004 0.000000 -10.825155 0.000005 0.000004 -95.446450 21.983244 14.685509 0.000005 43.678436 0.000010 66.982784 0.000004 0.000004 -0.000004 36.488422 -0.000008 -12.573994 11.888895 -0.638960 0.000009 3.967827 0.000002 -0.000001 -0.000001 -0.000000 0.000005 -0.000004 -15.539310 10.483549 0.000002 -0.000001 0.000005 0.000001 -3.486985 0.000004 -0.000005 0.000000 10.825165 0.000000 0.000008 -99.796714 -16.074379 -31.181668 -0.000023 43.678444 0.000010 68.155418 0.000011 0.000001 -0.000000 36.488430 -0.000021 -10.862588 4.970683 3.860197 0.000001 3.967827 0.000006 0.000000 -0.000003 0.000000 -0.000008 -0.000011 -15.539303 1.048985 0.000000 -0.000000 0.000009 -0.000008 -3.974438 -0.000000 -0.000001 0.000000 
-53.863514 -16.418207 -71.096313 45.779367 -176.246242 2.895716 -0.000002 -11.180200 2.228562 15.594891 0.562400 -0.340548 0.000007 -8.683008 1.531052 15.940838 0.000249 -0.203870 0.000003 -8.783394 0.768444 25.599378 -4.380093 -0.625388 -0.000003 -8.816938 -0.000002 -9.539484 -0.281014 -0.701139 -0.000004 -11.336060 -1.133627 -38.216732 -8.466550 2.555625 0.000001 -7.643261 -0.668699 11.121408 0.077138 0.964873 0.000005 -7.555875 -1.332311 4.135087 -0.022315 0.257225 -0.000000 -9.728073 -0.000001 0.000000 -0.000001 -0.000000 0.000002 -8.097195 -5.270927 0.000008 6.609273 28.767524 -20.762398 -0.000019 -0.000008 -91.041627 -8.275099 -89.219626 -29.048962 -0.000014 0.000001 -43.470244 -19.590514 -17.632963 -22.031239 -0.000016 -0.000017 5.992352 -9.768681 31.743738 -3.579279 2.890206 -2.661483 0.000003 -0.000000 0.000007 -9.544684 -0.000008 0.061188 0.000002 0.000008 0.000001 -0.000001 -8.097198 -5.270927 -0.000003 -13.304675 -18.726487 20.762375 -0.000009 -0.000002 -88.232513 30.377423 78.082367 29.048944 0.000004 -0.000019 -62.558372 4.945145 9.425415 22.031239 -0.000015 -0.000025 13.995245 13.371811 -47.141908 3.579235 2.890201 -2.661524 0.000000 0.000007 -0.000005 9.544669 -0.000010 0.061168 -0.000003 0.000006 -0.000001 -10.825162 0.000000 -0.000000 -95.902030 22.039332 14.683332 0.000002 43.678440 -0.000002 67.185750 0.000001 0.000006 0.000003 36.488449 0.000000 -12.698349 11.827963 -0.689725 0.000013 3.967827 0.000002 -0.000000 -0.000001 -0.000001 0.000003 0.000004 -15.539295 10.390762 -0.000003 0.000002 0.000006 -0.000007 -3.486986 0.000001 -0.000004 0.000001 10.825176 0.000001 -0.000002 -100.385373 -15.886544 -31.290217 -0.000007 43.678440 -0.000016 68.588589 0.000003 0.000005 0.000002 36.488457 -0.000004 -10.986588 4.969123 3.769510 0.000002 3.967834 0.000002 -0.000000 0.000003 -0.000000 -0.000014 0.000002 -15.539284 0.977121 0.000004 -0.000001 0.000020 -0.000008 -3.974445 -0.000000 -0.000006 0.000000 
-53.910938 -16.348083 -70.923599 45.461684 -176.208239 2.920107 0.000003 -11.180184 2.228564 15.463644 0.542442 -0.367957 -0.000004 -8.682991 1.531054 16.050926 0.005847 -0.219687 -0.000004 -8.783395 0.768452 25.617468 -4.379382 -0.717582 0.000004 -8.816946 0.000002 -9.738056 -0.267757 -0.708637 0.000008 -11.336079 -1.133601 -37.993730 -8.607702 2.747615 0.000005 -7.643228 -0.668692 11.113351 0.094423 0.897631 -0.000004 -7.555870 -1.332321 4.021181 -0.019307 0.241504 0.000001 -9.728081 -0.000015 0.000002 -0.000001 0.000000 0.000014 -8.097195 -5.270920 0.000012 6.414030 30.578426 -20.762384 -0.000015 -0.000003 -89.710785 -5.846399 -89.219858 -29.048952 -0.000015 0.000002 -42.193951 -21.186094 -18.140117 -22.031231 -0.000005 -0.000016 5.763512 -9.247803 32.131624 -3.579259 2.890202 -2.661485 0.000010 -0.000007 0.000003 -9.544685 -0.000008 0.061193 0.000002 -0.000001 -0.000000 0.000016 -8.097198 -5.270921 0.000002 -13.223256 -19.340806 20.762396 -0.000011 -0.000001 -87.616301 29.109064 77.801216 29.048948 0.000005 -0.000020 -61.970832 5.301819 9.846720 22.031244 -0.000016 0.000014 13.922724 13.244951 -47.254862 3.579244 2.890211 -2.661506 0.000000 0.000009 -0.000012 9.544659 -0.000001 0.061201 0.000003 0.000003 0.000004 -10.825168 0.000013 0.000003 -96.472413 22.077094 14.814421 0.000003 43.678448 -0.000001 67.491244 0.000007 0.000004 0.000007 36.488419 -0.000004 -12.821717 11.779292 -0.727979 0.000012 3.967827 0.000001 0.000000 0.000002 0.000000 -0.000003 -0.000010 -15.539297 10.328766 -0.000000 -0.000000 0.000019 -0.000007 -3.486978 0.000004 -0.000002 0.000001 10.825164 0.000026 -0.000008 -100.919959 -15.722629 -31.300732 0.000001 43.678448 0.000007 68.983360 0.000004 -0.000002 -0.000023 36.488430 -0.000006 -11.192222 4.925705 3.818072 -0.000009 3.967827 -0.000018 0.000000 0.000000 -0.000000 0.000012 -0.000003 -15.539301 1.000201 0.000001 -0.000000 -0.000006 -0.000008 -3.974433 -0.000001 -0.000004 0.000000 
-53.972828 -16.276915 -70.755295 45.138804 -176.228443 2.927786 -0.000002 -11.180200 2.228556 15.354940 0.565910 -0.402973 0.000006 -8.682989 1.531051 16.125952 0.014347 -0.217013 0.000010 -8.783392 0.768460 25.669854 -4.376673 -0.811268 0.000000 -8.816945 0.000026 -9.916612 -0.254538 -0.726476 0.000011 -11.336080 -1.133586 -37.752255 -8.714764 2.875732 0.000000 -7.643250 -0.668687 10.961135 0.068884 0.908921 0.000008 -7.555874 -1.332312 3.946542 -0.019492 0.242806 -0.000002 -9.728065 0.000011 0.000002 -0.000001 0.000000 0.000006 -8.097218 -5.270911 0.000012 6.310022 31.893046 -20.762396 -0.000021 0.000001 -88.859395 -4.264092 -89.244775 -29.048952 -0.000012 -0.000012 -40.905381 -22.399901 -18.270836 -22.031242 -0.000017 0.000012 5.501693 -8.717489 32.436353 -3.579250 2.890209 -2.661500 0.000003 -0.000003 -0.000006 -9.544666 -0.000007 0.061172 0.000002 -0.000001 -0.000004 0.000005 -8.097214 -5.270911 -0.000002 -13.205799 -19.838221 20.762383 -0.000009 -0.000017 -87.150960 28.217622 77.580676 29.048952 -0.000003 0.000010 -61.355596 5.599158 10.127518 22.031237 -0.000024 0.000005 13.750568 12.909359 -47.605302 3.579256 2.890227 -2.661505 0.000010 -0.000002 -0.000008 9.544655 -0.000003 0.061181 0.000007 0.000005 0.000000 -10.825164 -0.000006 0.000004 -97.098270 22.085364 15.032307 0.000001 43.678436 0.000002 67.843852 -0.000005 0.000006 -0.000003 36.488415 0.000001 -12.916941 11.704972 -0.792135 -0.000002 3.967827 -0.000002 -0.000001 0.000002 -0.000000 0.000003 0.000003 -15.539298 10.373136 -0.000002 -0.000001 0.000003 -0.000007 -3.486985 0.000001 0.000001 -0.000001 10.825164 0.000000 0.000001 -101.426588 -15.599799 -31.242877 -0.000014 43.678429 0.000015 69.319624 0.000003 0.000002 0.000019 36.488422 -0.000002 -11.368420 4.937030 3.844799 0.000014 3.967834 0.000010 -0.000000 0.000001 -0.000000 -0.000011 -0.000013 -15.539289 0.988515 -0.000007 0.000001 0.000009 -0.000008 -3.974435 -0.000001 0.000000 -0.000000 
-54.063164 -16.204088 -70.585281 44.793651 -176.230820 2.898154 -0.000004 -11.180210 2.228569 15.326736 0.582812 -0.447522 -0.000002 -8.682992 1.531042 16.145164 0.020826 -0.242639 -0.000001 -8.783388 0.768466 25.597544 -4.323400 -0.771004 0.000007 -8.816938 0.000010 -9.989696 -0.222582 -0.783502 -0.000002 -11.336061 -1.133611 -37.609224 -8.645986 2.756849 -0.000005 -7.643253 -0.668685 10.832743 -0.026213 1.163774 0.000006 -7.555869 -1.332293 3.893949 -0.027700 0.283176 0.000006 -9.728073 -0.000014 0.000002 0.000001 -0.000000 -0.000003 -8.097183 -5.270908 0.000012 6.335423 32.508415 -20.762384 -0.000026 -0.000024 -88.667467 -3.761956 -89.358211 -29.048964 -0.000005 -0.000003 -39.972996 -22.899886 -18.066265 -22.031223 -0.000021 -0.000008 5.483168 -8.474203 33.080262 -3.579253 2.890211 -2.661501 0.000001 -0.000000 0.000001 -9.544698 -0.000003 0.061184 -0.000001 0.000005 -0.000006 -0.000006 -8.097183 -5.270908 -0.000001 -13.223991 -20.244252 20.762392 -0.000002 -0.000010 -86.838581 27.512622 77.409396 29.048952 -0.000013 -0.000000 -60.950026 5.806013 10.321767 22.031231 -0.000031 0.000001 13.666031 12.764351 -47.739290 3.579262 2.890198 -2.661485 0.000006 -0.000002 0.000000 9.544696 -0.000012 0.061176 0.000004 -0.000004 0.000003 -10.825165 -0.000012 0.000011 -97.772444 22.038748 15.251759 -0.000002 43.678452 -0.000001 68.234990 0.000000 0.000005 -0.000002 36.488419 -0.000006 -13.001714 11.567717 -0.889891 0.000006 3.967827 0.000004 -0.000000 -0.000001 0.000000 0.000006 -0.000006 -15.539297 10.347194 -0.000003 -0.000000 0.000005 -0.000007 -3.486985 0.000001 0.000000 -0.000001 10.825150 -0.000010 0.000007 -102.034762 -15.544928 -31.245216 -0.000005 43.678440 -0.000001 69.724668 0.000003 0.000001 0.000002 36.488422 -0.000005 -11.455160 5.017602 3.741994 0.000008 3.967827 -0.000007 -0.000000 -0.000002 0.000001 -0.000000 -0.000007 -15.539293 1.005557 -0.000006 0.000001 0.000003 -0.000008 -3.974457 -0.000001 -0.000002 -0.000001 
-54.119106 -16.145485 -70.386841 44.452063 -176.199947 2.935409 0.000007 -11.180208 2.228567 15.232592 0.557413 -0.479066 0.000006 -8.682988 1.531035 16.255456 0.024175 -0.278068 -0.000008 -8.783405 0.768441 25.396086 -4.273722 -0.782563 0.000001 -8.816947 0.000013 -10.004620 -0.201724 -0.829640 -0.000003 -11.336067 -1.133624 -37.703163 -8.608868 2.681232 -0.000000 -7.643252 -0.668680 11.118944 -0.113027 1.288995 0.000000 -7.555876 -1.332304 3.769585 -0.032067 0.285107 -0.000002 -9.728081 0.000020 0.000003 -0.000001 0.000000 -0.000007 -8.097191 -5.270927 0.000011 6.257867 32.948672 -20.762384 -0.000019 -0.000017 -88.454017 -3.435441 -89.423651 -29.048941 -0.000012 -0.000005 -39.011254 -23.343804 -17.796777 -22.031227 -0.000017 -0.000010 5.429741 -8.197205 33.689642 -3.579268 2.890223 -2.661509 -0.000003 -0.000010 0.000002 -9.544703 -0.000000 0.061177 -0.000001 -0.000002 -0.000002 -0.000006 -8.097191 -5.270927 -0.000002 -13.182117 -20.551179 20.762394 -0.000005 0.000000 -86.509462 26.920031 77.193712 29.048956 -0.000013 -0.000014 -60.535864 5.975468 10.440742 22.031231 -0.000034 -0.000007 13.613734 12.600939 -47.987051 3.579269 2.890204 -2.661491 0.000000 0.000000 0.000000 9.544704 -0.000032 0.061198 -0.000002 0.000001 0.000004 -10.825165 -0.000000 0.000003 -98.428422 22.087529 15.433649 0.000007 43.678429 -0.000004 68.656119 0.000003 0.000003 0.000002 36.488441 -0.000014 -13.157973 11.462861 -0.897825 0.000006 3.967827 0.000001 0.000001 0.000007 -0.000001 -0.000002 -0.000002 -15.539288 10.322189 0.000001 0.000001 0.000000 -0.000008 -3.486982 0.000000 -0.000006 0.000001 10.825158 -0.000002 0.000006 -102.708437 -15.431901 -31.336693 -0.000004 43.678436 -0.000008 70.226530 0.000001 0.000004 -0.000005 36.488457 -0.000016 -11.627982 5.098993 3.635539 0.000004 3.967834 0.000024 -0.000000 -0.000000 0.000000 0.000009 0.000004 -15.539309 0.951243 -0.000004 0.000001 0.000005 -0.000000 -3.974442 -0.000001 -0.000000 -0.000000 
